<svg xmlns="http://www.w3.org/2000/svg" viewBox="0 0 512 512" style="enable-background:new 0 0 512 512" xml:space="preserve"><path d="m478.382 297.701 33.391-200.348a16.696 16.696 0 0 0-16.469-19.441H123.462L111 13.524A16.696 16.696 0 0 0 94.609 0H16.696C7.475 0 0 7.475 0 16.696s7.475 16.696 16.696 16.696h64.139L93.496 97.78v.002l19.335 100.407 32.219 166.724c1.519 7.85 8.344 13.522 16.342 13.522h300.522c9.22 0 16.696-7.475 16.696-16.696s-7.475-16.696-16.696-16.696H175.165l-6.462-33.391h293.21c8.162 0 15.126-5.9 16.469-13.951zm-316.143-19.44-32.314-166.956h345.67L447.77 278.261H162.239zm54.804 133.565c-27.618 0-50.087 22.469-50.087 50.087S189.426 512 217.043 512c27.618 0 50.087-22.469 50.087-50.087s-22.469-50.087-50.087-50.087zm0 66.783c-9.206 0-16.696-7.49-16.696-16.696s7.49-16.696 16.696-16.696c9.206 0 16.696 7.49 16.696 16.696s-7.49 16.696-16.696 16.696zm189.218-66.783c-27.618 0-50.087 22.469-50.087 50.087S378.643 512 406.261 512s50.087-22.469 50.087-50.087-22.469-50.087-50.087-50.087zm0 66.783c-9.206 0-16.696-7.49-16.696-16.696s7.49-16.696 16.696-16.696 16.696 7.49 16.696 16.696-7.49 16.696-16.696 16.696z"/><path d="M306.087 144.696c-9.22 0-16.696 7.475-16.696 16.696v66.783c0 9.22 7.475 16.696 16.696 16.696s16.696-7.475 16.696-16.696v-66.783c0-9.221-7.476-16.696-16.696-16.696zm100.174 0c-9.22 0-16.696 7.475-16.696 16.696v66.783c0 9.22 7.475 16.696 16.696 16.696s16.696-7.475 16.696-16.696v-66.783c0-9.221-7.476-16.696-16.696-16.696zm-200.348 0c-9.22 0-16.696 7.475-16.696 16.696v66.783c0 9.22 7.475 16.696 16.696 16.696 9.22 0 16.696-7.475 16.696-16.696v-66.783c0-9.221-7.476-16.696-16.696-16.696z"/></svg>