<svg xmlns="http://www.w3.org/2000/svg" xml:space="preserve" width="28mm" height="105.783" style="shape-rendering:geometricPrecision;text-rendering:geometricPrecision;image-rendering:optimizeQuality;fill-rule:evenodd;clip-rule:evenodd" viewBox="0 0 198.29 198.21" fill="#22795D"><path class="fil0" d="M44.44 0H13.56C6.09 0 .01 6.08.01 13.55v30.84c0 7.47 6.08 13.55 13.55 13.55H44.4c7.47 0 13.55-6.08 13.55-13.55V13.51C57.99 6.08 51.91 0 44.44 0zm140.34 140.26H82.06c-7.47 0-13.55 6.08-13.55 13.55v30.84c0 7.47 6.08 13.55 13.55 13.55h102.68c7.47 0 13.55-6.08 13.55-13.55v-30.84c.04-7.47-6.04-13.55-13.51-13.55zm0-70.11H82.06c-7.47 0-13.55 6.08-13.55 13.55v30.84c0 7.47 6.08 13.55 13.55 13.55h102.68c7.47 0 13.55-6.08 13.55-13.55V83.7c.04-7.47-6.04-13.55-13.51-13.55zm0-70.15H82.06c-7.47 0-13.55 6.08-13.55 13.55v30.84c0 7.47 6.08 13.55 13.55 13.55h102.68c7.47 0 13.55-6.08 13.55-13.55V13.51C198.33 6.08 192.25 0 184.78 0zM44.44 140.26H13.56c-7.47 0-13.55 6.08-13.55 13.55v30.84c0 7.47 6.08 13.55 13.55 13.55H44.4c7.47 0 13.55-6.08 13.55-13.55v-30.84c.04-7.47-6.04-13.55-13.51-13.55zm0-70.11H13.56C6.09 70.15.01 76.23.01 83.7v30.84c0 7.47 6.08 13.55 13.55 13.55H44.4c7.47 0 13.55-6.08 13.55-13.55V83.7c.04-7.47-6.04-13.55-13.51-13.55z"/></svg>