<svg xmlns="http://www.w3.org/2000/svg" viewBox="0 0 482.8 482.8" fill="#22795D" style="enable-background:new 0 0 482.8 482.8" xml:space="preserve"><path d="M108.2.1H33C14.8.1 0 14.9 0 33.1v75.1c0 18.2 14.8 33 33 33h75.1c18.2 0 33-14.8 33-33V33C141.2 14.9 126.4.1 108.2.1zm0 170.8H33c-18.2 0-33 14.8-33 33V279c0 18.2 14.8 33 33 33h75.1c18.2 0 33-14.8 33-33v-75.1c.1-18.2-14.7-33-32.9-33zm0 170.7H33c-18.2 0-33 14.8-33 33v75.1c0 18.2 14.8 33 33 33h75.1c18.2 0 33-14.8 33-33v-75.1c.1-18.2-14.7-33-32.9-33zM279 170.9h-75.1c-18.2 0-33 14.8-33 33V279c0 18.2 14.8 33 33 33H279c18.2 0 33-14.8 33-33v-75.1c-.1-18.2-14.8-33-33-33zm0 170.7h-75.1c-18.2 0-33 14.8-33 33v75.1c0 18.2 14.8 33 33 33H279c18.2 0 33-14.8 33-33v-75.1c-.1-18.2-14.8-33-33-33zm170.8-170.7h-75.1c-18.2 0-33 14.8-33 33V279c0 18.2 14.8 33 33 33h75.1c18.2 0 33-14.8 33-33v-75.1c-.1-18.2-14.9-33-33-33zm0 170.7h-75.1c-18.2 0-33 14.8-33 33v75.1c0 18.2 14.8 33 33 33h75.1c18.2 0 33-14.8 33-33v-75.1c-.1-18.2-14.9-33-33-33zm0-341.5h-75.1c-18.2 0-33 14.8-33 33v75.1c0 18.2 14.8 33 33 33h75.1c18.2 0 33-14.8 33-33V33c-.1-18.1-14.9-32.9-33-32.9zM279 .1h-75.1c-18.2 0-33 14.8-33 33v75.1c0 18.2 14.8 33 33 33H279c18.2 0 33-14.8 33-33V33C311.9 14.9 297.2.1 279 .1z"/></svg>